<?xml version="1.0" standalone="no"?>
<!DOCTYPE svg PUBLIC "-//W3C//DTD SVG 20010904//EN"
 "http://www.w3.org/TR/2001/REC-SVG-20010904/DTD/svg10.dtd">
<svg version="1.0" xmlns="http://www.w3.org/2000/svg"
 width="676.000000pt" height="676.000000pt" viewBox="0 0 676.000000 676.000000"
 preserveAspectRatio="xMidYMid meet">
<metadata>
Created by potrace 1.14, written by Peter Selinger 2001-2017
</metadata>
<g transform="translate(0.000000,676.000000) scale(0.100000,-0.100000)"
fill="#000000" stroke="none">
<path d="M0 4290 c0 -1358 2 -2470 5 -2470 4 0 18 6 33 14 34 16 351 124 492
166 202 61 236 73 325 116 50 24 114 59 143 78 62 41 72 44 72 16 0 -10 20
-101 46 -202 36 -147 44 -193 39 -234 -5 -42 3 -87 45 -248 28 -109 50 -202
48 -208 -2 -5 -42 -23 -88 -39 -47 -16 -105 -38 -130 -48 -25 -11 -85 -36
-135 -56 -49 -21 -123 -51 -162 -67 l-73 -31 -32 27 c-91 73 -271 206 -333
244 -93 58 -129 73 -200 82 -33 4 -68 10 -77 15 -14 5 -18 2 -18 -14 0 -16 18
-29 83 -59 52 -25 105 -59 142 -94 65 -59 68 -61 200 -170 156 -129 446 -319
610 -400 50 -25 162 -76 250 -113 88 -38 162 -70 164 -72 11 -8 90 -366 91
-409 0 -28 3 -66 6 -83 l6 -31 279 0 c177 0 279 4 279 10 0 21 -42 167 -59
205 -32 70 -41 95 -33 95 4 0 43 -9 87 -19 188 -47 224 -53 307 -58 l86 -6 69
69 c38 38 78 82 89 98 20 29 21 30 65 17 34 -10 60 -10 105 -2 32 5 70 12 84
15 14 2 81 25 150 50 69 26 131 44 139 41 11 -4 13 -21 7 -86 -11 -136 -44
-256 -111 -411 -7 -17 2 -18 99 -18 l107 0 31 50 c17 28 35 50 39 50 5 0 19
-21 31 -47 l23 -48 133 -3 c72 -1 132 0 132 3 0 3 -20 36 -43 73 -24 37 -50
83 -57 102 -7 19 -21 46 -30 60 -18 27 -28 50 -80 175 -19 44 -46 97 -62 117
-15 20 -28 40 -28 43 0 3 -12 31 -26 61 l-25 54 -103 0 c-115 0 -129 -6 -227
-94 -81 -73 -214 -126 -324 -131 l-60 -2 3 -31 c3 -24 -5 -40 -35 -73 -90
-100 -136 -115 -258 -83 -33 8 -89 22 -125 30 -36 8 -96 24 -134 35 l-69 21 7
61 c4 34 11 100 16 147 6 56 29 151 70 280 33 107 71 238 85 290 74 293 108
436 125 530 11 58 24 128 29 155 19 94 23 143 14 148 -5 3 -20 -51 -32 -121
-49 -281 -132 -560 -178 -598 -7 -6 -13 -16 -13 -23 0 -6 -4 -11 -9 -11 -12 0
-85 -148 -111 -224 -11 -33 -20 -81 -20 -108 0 -102 -33 -39 -56 107 -20 131
-18 210 10 306 98 342 86 509 -55 794 -68 138 -220 285 -397 385 -80 45 -97
90 -34 90 15 0 104 12 197 27 134 21 205 26 335 26 214 -1 255 -11 495 -123
92 -43 102 -50 120 -91 56 -119 222 -429 249 -464 50 -64 106 -115 176 -158
106 -65 210 -137 210 -146 0 -4 -27 -3 -59 2 -33 5 -70 7 -84 3 -30 -7 -69
-66 -87 -129 -7 -26 -16 -50 -21 -52 -8 -5 -10 2 -30 115 -7 36 -18 76 -26 90
-13 24 -13 23 -9 -20 2 -25 13 -99 25 -165 25 -140 23 -166 -25 -330 -46 -155
-180 -493 -207 -522 -11 -13 -45 -32 -76 -44 -94 -35 -126 -81 -79 -113 26
-19 49 -21 45 -5 -1 6 18 16 43 23 101 27 190 93 190 140 0 19 10 32 38 50 21
13 46 36 55 50 10 14 24 26 31 26 7 0 41 28 74 62 l62 63 182 3 c112 2 197 0
219 -7 21 -6 65 -38 105 -76 64 -61 177 -143 232 -168 24 -11 42 -44 112 -212
23 -55 51 -112 61 -127 11 -14 19 -29 19 -33 0 -13 85 -105 98 -105 17 0 15
32 -3 56 -8 10 -15 22 -15 25 0 4 26 17 58 29 135 53 685 315 820 391 79 44
222 141 347 235 61 45 123 89 138 97 54 28 450 400 572 537 122 136 228 207
435 291 77 31 81 34 51 37 -43 4 -113 -18 -227 -73 -120 -58 -175 -104 -395
-331 -47 -49 -132 -132 -189 -184 -56 -52 -110 -103 -120 -113 -36 -37 -85
-67 -110 -67 -26 0 -26 1 -23 67 3 64 22 216 45 348 20 125 57 257 84 302 15
26 30 61 34 78 7 37 50 67 180 125 227 102 290 113 464 85 50 -8 134 -21 186
-30 52 -8 137 -26 188 -40 51 -14 98 -25 103 -25 5 0 9 856 9 2205 0 1213 -3
2205 -6 2205 -4 0 -50 -13 -103 -30 -107 -33 -445 -195 -561 -269 -41 -26
-109 -69 -150 -94 -95 -58 -270 -181 -385 -273 -96 -76 -271 -235 -295 -269
-17 -25 -22 -29 -88 -84 -29 -24 -55 -42 -57 -40 -2 2 -22 40 -45 84 -103 194
-211 329 -347 431 -42 32 -71 60 -64 62 26 9 197 -85 271 -149 119 -102 213
-213 240 -283 9 -24 40 -37 40 -17 0 23 -81 254 -110 313 -64 131 -195 272
-350 377 -108 73 -222 120 -353 144 -36 7 -67 16 -69 21 -5 15 62 34 121 35
67 1 158 -22 232 -59 55 -28 143 -98 257 -203 29 -27 56 -47 59 -43 12 12
-154 244 -232 323 -111 112 -227 163 -372 163 -35 0 -63 4 -63 9 0 32 281 26
375 -8 90 -33 95 -34 95 -24 0 16 -96 80 -169 112 -128 57 -324 74 -493 45
-52 -9 -48 7 10 45 l47 31 -103 0 -104 0 -35 -35 c-43 -43 -63 -44 -84 -2
l-16 32 -1926 3 -1927 2 0 -2470z m3055 1265 c30 -92 91 -216 146 -295 34 -51
153 -174 223 -233 l30 -24 -81 -81 c-71 -72 -83 -88 -103 -151 l-23 -71 -48 0
c-26 0 -60 -5 -75 -10 -25 -10 -30 -7 -76 44 -66 75 -231 166 -299 166 -23 0
-29 20 -29 103 0 84 9 147 21 147 11 0 94 -56 109 -75 16 -20 50 -19 50 0 0
38 -32 86 -79 120 l-51 37 18 26 c11 15 34 59 53 97 48 101 117 215 152 252
17 18 32 32 33 30 1 -1 14 -38 29 -82z m521 -333 c38 -38 86 -82 107 -99 l38
-30 -68 -18 c-37 -9 -77 -19 -88 -22 -18 -4 -24 6 -49 89 -15 51 -31 100 -35
108 -10 19 -3 40 13 40 7 0 44 -31 82 -68z m-959 -4 c6 -7 15 -65 22 -128 6
-63 14 -130 18 -148 l5 -33 -40 7 c-43 7 -149 -9 -214 -32 -45 -16 -49 -6 -18
44 11 18 20 39 20 46 0 8 3 16 8 18 8 3 52 64 52 72 0 3 20 37 45 76 25 39 45
75 45 80 0 14 46 12 57 -2z m1519 -339 c95 -45 143 -94 174 -176 26 -70 25
-115 -4 -177 -13 -28 -29 -63 -35 -78 -6 -16 -17 -28 -25 -28 -7 0 -16 -6 -19
-14 -3 -7 -18 -16 -34 -19 -15 -3 -42 -20 -60 -37 -25 -23 -46 -32 -95 -40
-35 -5 -79 -14 -98 -18 -34 -9 -35 -9 -11 -19 22 -9 20 -10 -23 -16 -76 -11
-209 -1 -242 17 l-29 16 27 -6 c15 -3 35 -1 45 5 17 11 17 11 -2 10 -11 -1
-33 3 -48 9 -40 17 -77 25 -77 18 0 -4 11 -11 25 -16 14 -5 25 -14 25 -19 0
-4 -16 -1 -35 7 -23 11 -34 21 -30 30 3 10 0 12 -10 9 -8 -4 -18 -1 -22 6 -5
7 -27 24 -50 39 -32 21 -45 38 -59 80 -39 116 -19 202 72 306 65 74 134 108
319 156 11 3 69 3 129 0 102 -5 116 -8 192 -45z m-1319 -183 c63 -20 153 -98
182 -159 25 -51 27 -116 7 -200 -28 -121 -154 -198 -410 -253 -115 -24 -209
-15 -303 31 -117 58 -163 128 -163 249 0 210 231 362 535 352 56 -2 123 -11
152 -20z m1800 -197 c96 -77 128 -192 85 -307 -31 -81 -225 -305 -275 -318
-15 -3 -30 -4 -34 -1 -3 3 -2 38 2 78 6 58 11 72 26 76 20 6 25 23 9 39 -6 6
-5 24 2 49 6 22 11 59 10 82 -1 40 2 44 61 88 57 43 64 46 104 40 52 -8 59 3
39 60 -16 45 -44 70 -101 89 -22 8 -41 19 -43 24 -7 23 87 23 115 1z m-213
-295 c12 -31 6 -57 -19 -80 -16 -15 -25 -34 -26 -56 0 -18 -2 -42 -3 -53 -2
-11 -6 -47 -10 -80 -24 -202 -95 -355 -237 -512 -42 -46 -260 -229 -349 -292
-92 -65 -218 -143 -277 -170 l-52 -24 -63 28 c-35 16 -97 47 -138 69 -76 42
-124 66 -354 176 -118 56 -135 68 -209 143 -88 91 -153 172 -186 232 -12 22
-33 60 -46 84 -14 25 -24 50 -22 55 2 7 39 10 103 8 108 -4 201 15 239 48 11
9 43 30 70 45 28 15 63 46 79 69 16 22 57 64 90 91 34 28 84 84 111 125 54 81
68 88 175 89 40 1 51 -4 95 -45 106 -97 204 -146 339 -170 44 -8 80 -15 80
-17 8 -23 30 -44 57 -53 63 -22 260 -2 298 29 9 7 28 19 44 27 15 7 27 16 27
19 0 3 14 21 30 40 17 19 30 45 30 60 0 18 15 40 45 69 25 24 45 48 45 53 0
15 27 10 34 -7z m-2408 -8 c6 -14 -73 -176 -86 -176 -22 0 -20 89 3 135 25 50
71 73 83 41z m2726 -753 c2 -21 3 -83 3 -138 0 -123 17 -142 28 -30 14 149 18
180 25 192 5 8 26 8 77 2 39 -6 130 -13 203 -17 99 -5 135 -11 142 -22 9 -15
18 -106 22 -235 l3 -80 -165 -3 c-174 -2 -207 -7 -179 -22 13 -7 200 -19 327
-20 30 0 26 -34 -3 -36 -42 -2 -49 -7 -20 -13 27 -5 30 -10 33 -48 3 -39 1
-42 -25 -45 -34 -4 -43 -33 -14 -43 23 -7 28 -39 9 -51 -6 -4 -9 -3 -5 2 3 5
-6 14 -19 21 -14 6 -26 7 -30 2 -3 -5 -12 -5 -22 0 -9 4 -22 7 -27 5 -6 -2
-16 9 -22 26 -14 36 -32 38 -101 9 l-51 -21 -45 28 c-51 33 -56 48 -24 81 19
20 31 23 102 24 45 0 90 4 101 9 13 6 -20 9 -92 9 l-113 1 -52 -53 c-29 -29
-70 -71 -90 -94 -20 -23 -48 -49 -61 -58 -23 -15 -28 -15 -62 -1 -21 9 -50 16
-66 16 -16 0 -29 5 -29 13 0 9 -2 9 -8 -1 -15 -22 -32 60 -32 152 0 47 4 86 8
86 5 0 18 -13 30 -30 22 -29 62 -41 62 -19 0 6 -23 36 -50 66 l-50 55 6 66 c4
37 11 77 15 90 5 13 9 43 9 68 0 31 5 46 16 51 18 7 83 -21 135 -59 57 -41 72
-34 50 24 -4 13 -11 35 -15 51 -6 26 -5 27 29 27 33 0 35 -2 37 -37z m748 -48
c8 -8 28 -15 44 -17 25 -3 31 -9 42 -53 15 -57 20 -122 10 -152 -5 -15 -1 -25
11 -31 16 -10 16 -12 2 -29 -9 -10 -19 -26 -23 -37 -4 -11 -12 -16 -22 -12 -8
3 -35 1 -59 -5 -36 -9 -45 -16 -50 -40 -8 -36 -33 -38 -65 -4 -13 14 -32 25
-42 25 -14 0 -17 8 -17 38 1 20 -4 60 -9 87 -11 52 -16 258 -7 267 9 9 169
-24 185 -37z m-1140 -73 c55 -5 40 -7 -100 -13 -162 -5 -208 0 -159 20 24 10
130 7 259 -7z m-392 -278 c5 -5 15 -40 22 -79 29 -156 79 -296 152 -428 63
-111 117 -170 187 -203 47 -23 64 -26 116 -21 58 6 196 47 219 66 6 5 51 19
100 31 76 19 110 22 218 18 73 -2 132 -8 139 -15 8 -8 5 -30 -10 -79 -24 -79
-30 -87 -91 -133 -25 -19 -62 -51 -83 -70 l-38 -36 -149 0 -149 -1 -61 -63
c-33 -35 -63 -75 -67 -89 -3 -15 1 -56 10 -92 22 -86 31 -153 24 -183 -8 -28
-150 -193 -250 -290 -92 -88 -123 -98 -209 -67 -35 13 -74 31 -88 39 -14 9
-60 34 -102 56 -45 23 -78 46 -78 55 0 33 -50 89 -88 99 -49 14 -215 47 -272
55 -28 4 -71 23 -111 49 -37 23 -99 62 -138 87 -150 94 -242 171 -283 238 -67
111 -228 432 -215 432 7 -1 41 -7 77 -15 36 -8 80 -14 98 -15 17 0 40 -8 50
-17 45 -44 136 -96 217 -123 100 -34 142 -60 229 -143 57 -53 99 -77 113 -64
3 3 -4 18 -16 33 -11 15 -21 31 -21 36 0 4 -18 54 -40 109 -22 56 -40 105 -40
109 0 5 37 29 83 54 92 50 209 162 270 258 40 62 207 376 207 389 0 22 52 32
68 13z m1395 -72 c10 -22 11 -33 3 -44 -18 -25 -36 -9 -36 33 0 46 13 50 33
11z m-1108 -60 c22 -4 39 -11 38 -17 -4 -17 -73 -17 -99 0 -31 20 -32 40 -1
30 12 -4 40 -10 62 -13z m1165 -23 c0 -6 -4 -7 -10 -4 -5 3 -10 11 -10 16 0 6
5 7 10 4 6 -3 10 -11 10 -16z m-383 -35 c-3 -3 -12 -4 -19 -1 -8 3 -5 6 6 6
11 1 17 -2 13 -5z m-1953 -126 c9 -64 4 -88 -19 -88 -18 0 -55 57 -55 85 0 29
29 67 48 63 12 -2 19 -20 26 -60z m1937 -61 c-13 -13 -26 -3 -16 12 3 6 11 8
17 5 6 -4 6 -10 -1 -17z m-4775 -262 c18 -15 18 -15 -5 -13 -14 2 -26 9 -29
16 -5 17 10 15 34 -3z m619 -15 c-3 -5 -13 -10 -21 -10 -8 0 -14 5 -14 10 0 6
9 10 21 10 11 0 17 -4 14 -10z m724 -48 c9 -7 31 -24 48 -38 80 -62 147 -209
198 -429 20 -87 39 -190 42 -227 l6 -68 -47 -70 c-26 -38 -51 -70 -55 -70 -4
0 -29 93 -57 207 -42 179 -53 210 -77 232 -21 20 -34 51 -56 136 -32 124 -81
344 -81 362 0 12 45 -8 79 -35z m3666 29 c3 -5 19 -12 35 -16 45 -10 37 -20
-30 -38 -73 -21 -70 -21 -70 1 0 39 48 79 65 53z m355 -100 c159 -75 232 -99
347 -114 94 -12 120 -22 87 -33 -206 -65 -392 -164 -497 -263 -172 -164 -258
-341 -317 -656 -26 -138 -56 -270 -81 -357 -25 -86 -23 -85 -278 -219 -19 -10
-38 -16 -42 -13 -19 11 4 369 30 486 6 25 17 101 25 169 16 134 42 247 106
459 23 74 50 162 60 195 9 33 37 120 60 194 40 123 45 134 74 146 32 13 197
51 251 58 17 2 34 5 40 6 5 0 66 -26 135 -58z m-535 -98 c-13 -33 -123 -378
-154 -482 -91 -306 -161 -738 -161 -996 0 -57 -3 -111 -6 -120 -7 -18 -98 -66
-189 -100 -33 -12 -68 -26 -77 -30 -11 -4 -18 -3 -18 5 0 21 81 443 119 625
22 99 49 236 61 305 12 69 31 164 42 213 11 48 19 90 16 93 -9 8 -55 -172 -88
-341 -17 -88 -35 -176 -40 -195 -4 -19 -27 -132 -50 -250 -22 -118 -47 -245
-55 -282 -8 -37 -15 -80 -16 -95 0 -15 -8 -50 -17 -77 -17 -48 -19 -50 -97
-83 -43 -18 -94 -36 -112 -39 -18 -3 -50 -15 -70 -25 -69 -35 -64 -41 -154
169 -27 63 -49 120 -49 128 0 11 9 13 38 8 20 -3 49 -1 65 5 61 24 48 69 -48
172 -42 44 -89 106 -105 139 l-29 58 44 0 c78 -2 96 41 51 117 -14 22 -43 72
-65 110 -22 39 -51 84 -65 99 -32 38 -51 74 -43 82 6 6 28 -2 112 -42 94 -44
182 -74 214 -74 49 0 109 40 191 128 75 79 140 158 140 167 0 7 5 14 53 70 18
22 68 84 111 137 72 91 266 282 381 377 53 44 82 53 70 24z m-4945 -59 c0 -20
-29 -30 -43 -15 -9 10 -8 16 7 26 21 16 36 11 36 -11z m110 -4 c0 -5 -4 -10
-10 -10 -5 0 -10 5 -10 10 0 6 5 10 10 10 6 0 10 -4 10 -10z m334 4 c18 -7 12
-24 -10 -24 -8 0 -14 7 -14 15 0 17 2 18 24 9z m992 -294 c-22 -11 -47 -20
-55 -19 -20 1 58 39 79 38 8 0 -3 -9 -24 -19z m1699 -220 c286 -44 294 -50
100 -69 -131 -13 -237 -27 -272 -37 -17 -5 -23 -2 -23 10 0 23 37 93 52 99 21
9 78 7 143 -3z m437 -93 c15 -12 35 -48 47 -83 28 -80 27 -85 -6 -74 -16 5
-86 16 -158 25 -71 9 -162 23 -202 31 -40 8 -97 14 -127 14 -78 0 -107 -29
-191 -190 -38 -71 -77 -138 -88 -147 -16 -14 -19 -15 -15 -3 3 8 13 42 22 75
62 214 95 288 135 304 14 6 76 15 136 21 61 5 133 14 160 20 181 36 251 38
287 7z m-397 -127 c64 -16 222 -40 320 -50 116 -12 132 -16 144 -39 11 -21 41
-192 35 -203 -8 -12 -348 98 -365 118 -6 8 -17 14 -24 14 -6 0 -26 7 -44 16
-58 29 -79 14 -230 -162 -140 -162 -176 -194 -223 -194 -16 0 11 28 40 43 14
6 45 40 69 75 34 51 43 72 43 107 0 68 75 217 134 267 24 20 44 22 101 8z
m621 -278 c25 -50 10 -49 -25 2 -36 52 -45 99 -11 56 11 -14 28 -40 36 -58z
m-438 38 c9 -5 75 -27 145 -50 71 -22 141 -47 157 -56 29 -18 85 -126 108
-209 12 -41 72 -113 127 -152 23 -17 27 -24 18 -34 -18 -18 -82 -1 -112 30
-49 52 -103 126 -128 176 -34 67 -110 145 -143 145 -14 1 -56 11 -95 24 -38
13 -77 21 -87 18 -10 -2 -41 -24 -67 -48 -48 -43 -51 -44 -117 -44 -38 -1 -95
-7 -127 -15 -72 -17 -72 -3 1 40 28 16 81 55 117 85 102 86 163 113 203 90z
m382 -59 c0 -4 11 -20 25 -35 29 -31 11 -35 -22 -4 -24 22 -31 48 -13 48 6 0
10 -4 10 -9z m-859 -261 c-28 -28 -51 -54 -51 -58 0 -4 -15 -14 -32 -21 -18
-8 -50 -28 -70 -44 -20 -16 -41 -28 -47 -26 -8 3 29 105 58 159 5 9 29 17 62
21 30 3 70 12 89 21 19 8 36 11 38 7 2 -5 -19 -31 -47 -59z m-193 -212 c-6
-17 -123 -76 -167 -84 -55 -11 -29 13 62 56 88 41 111 47 105 28z m-798 -447
c0 -11 -59 -36 -66 -28 -3 3 7 12 23 21 33 18 43 19 43 7z"/>
<path d="M3823 4273 c15 -2 39 -2 55 0 15 2 2 4 -28 4 -30 0 -43 -2 -27 -4z"/>
<path d="M4105 3827 c-14 -30 -93 -97 -113 -97 -4 0 -25 -12 -46 -26 -21 -15
-64 -37 -95 -49 -31 -13 -96 -40 -146 -60 -104 -42 -290 -91 -396 -105 -184
-24 -425 -6 -554 40 -84 30 -119 36 -113 19 5 -17 56 -43 123 -63 221 -65 489
-61 770 14 197 53 426 149 528 221 44 31 87 91 87 119 0 32 -28 23 -45 -13z"/>
<path d="M5103 3023 c9 -2 23 -2 30 0 6 3 -1 5 -18 5 -16 0 -22 -2 -12 -5z"/>
<path d="M3719 2253 c-18 -44 -39 -126 -39 -150 0 -31 28 -30 71 2 19 13 58
37 87 51 30 15 56 33 59 41 13 33 -67 83 -132 83 -29 0 -37 -5 -46 -27z"/>
<path d="M2900 1810 c-4 -26 2 -72 10 -94 7 -16 9 -12 8 19 0 42 -15 101 -18
75z"/>
<path d="M6733 807 c-4 -7 -57 -49 -118 -93 -233 -171 -635 -375 -1105 -560
-36 -15 -105 -42 -154 -62 -49 -19 -128 -48 -175 -63 l-86 -28 833 -1 832 0 0
410 c0 252 -4 410 -10 410 -5 0 -13 -6 -17 -13z m15 -119 c3 -14 -4 -18 -32
-18 -36 0 -52 12 -41 31 11 17 69 6 73 -13z"/>
<path d="M0 174 l0 -174 593 1 592 1 -150 38 c-509 130 -802 215 -972 283
l-63 26 0 -175z"/>
</g>
</svg>
