<?xml version="1.0" encoding="UTF-8"?>
<svg width="24px" height="24px" viewBox="0 0 24 24" version="1.1" xmlns="http://www.w3.org/2000/svg">
    <g stroke="none" stroke-width="1" fill="none" fill-rule="evenodd">
        <path d="M19,3 C20.1045695,3 21,3.8954305 21,5 L21,19 C21,20.1045695 20.1045695,21 19,21 L5,21 C3.8954305,21 3,20.1045695 3,19 L3,5 C3,3.8954305 3.8954305,3 5,3 L19,3 Z M18.5,18.5 L18.5,13.2 C18.5,11.3 17.9,9.9 15.8,9.9 C14.8,9.9 14.1,10.5 13.8,11 L13.8,10.1 L11.9,10.1 L11.9,18.5 L13.9,18.5 L13.9,13.6 C13.9,12.7 14.1,11.9 15.2,11.9 C16.3,11.9 16.5,12.9 16.5,13.7 L16.5,18.5 L18.5,18.5 Z M6.7,18.5 L8.7,18.5 L8.7,10.1 L6.7,10.1 L6.7,18.5 Z M7.7,6.7 C7,6.7 6.4,7.3 6.4,8 C6.4,8.7 7,9.3 7.7,9.3 C8.4,9.3 9,8.7 9,8 C9,7.3 8.4,6.7 7.7,6.7 Z" fill="#00ff9f" fill-rule="nonzero"></path>
    </g>
</svg> 